<svg id="down" width="30" height="30"  fill="none" xmlns="http://www.w3.org/2000/svg">
<g clip-path="url(#clip0)">
<path d="M1.68633 17.3526L1.6395 17.3424L21.7141 17.3424L15.4034 23.667C15.0944 23.9758 14.9249 24.3941 14.9249 24.8331C14.9249 25.2722 15.0944 25.6875 15.4034 25.997L16.3854 26.9795C16.6941 27.2883 17.1056 27.459 17.5444 27.459C17.9834 27.459 18.3951 27.2895 18.7039 26.9807L29.5217 16.1639C29.8317 15.8539 30.0012 15.4409 30 15.0017C30.0012 14.56 29.8317 14.1468 29.5217 13.8373L18.7039 3.01947C18.3951 2.71093 17.9837 2.54118 17.5444 2.54118C17.1056 2.54118 16.6941 2.71118 16.3854 3.01947L15.4034 4.00191C15.0944 4.3102 14.9249 4.72191 14.9249 5.16094C14.9249 5.59971 15.0944 5.98972 15.4034 6.29825L21.7854 12.6583L1.66389 12.6582C0.759746 12.6582 -1.02183e-05 13.4375 -1.02973e-05 14.3412L-1.04188e-05 15.7307C-1.04978e-05 16.6343 0.782185 17.3526 1.68633 17.3526Z"/>
</g>
<defs>
<clipPath id="clip0">
<rect x="30" y="30" width="30" height="30" transform="rotate(-180 30 30)" fill="white"/>
</clipPath>
</defs>
</svg>
