<svg id="vk"   fill="none" xmlns="http://www.w3.org/2000/svg">
<path d="M34 0H0V34H34V0Z" fill="#4C77A6"/>
<path d="M9.59495 10.9826C10.3336 12.8031 11.2662 14.5192 12.4973 16.0561C12.6614 16.2576 12.8629 16.4441 13.0793 16.5933C13.3926 16.8097 13.6911 16.7351 13.8254 16.3695C13.9597 15.989 14.0865 15.2205 14.094 14.8176C14.1163 13.7731 14.094 13.0941 14.0343 12.0496C13.997 11.3855 13.7582 10.7961 12.7808 10.617C12.4749 10.5648 12.4525 10.3111 12.6465 10.0649C13.0494 9.5501 13.6165 9.46803 14.2283 9.43072C15.2206 9.3785 16.2129 9.42326 17.2052 9.43072C17.6081 9.43072 18.0185 9.46803 18.4139 9.55756C18.9362 9.66948 19.2122 10.0351 19.2943 10.5424C19.3391 10.8036 19.3615 11.0722 19.354 11.3408C19.3316 12.4748 19.2719 13.6164 19.257 14.7505C19.2496 15.1981 19.2869 15.6532 19.3764 16.086C19.5107 16.6903 19.921 16.847 20.3463 16.4068C20.8835 15.8472 21.3536 15.228 21.7938 14.5938C22.5996 13.4373 23.2039 12.1689 23.7187 10.8632C23.9873 10.1918 24.1888 10.0425 24.9199 10.0425C26.2853 10.0425 27.6507 10.0351 29.0161 10.0425C29.2548 10.0425 29.5085 10.0649 29.7398 10.1395C30.1128 10.2589 30.2546 10.5573 30.1725 10.9453C29.9711 11.8406 29.4861 12.6091 28.9638 13.3403C28.1282 14.5192 27.2553 15.6682 26.3972 16.8321C26.2853 16.9813 26.1958 17.138 26.1063 17.3021C25.7854 17.8766 25.8078 18.2049 26.2779 18.6824C27.0165 19.4509 27.8148 20.1672 28.5311 20.9506C29.0534 21.5251 29.5383 22.1444 29.9487 22.7935C30.471 23.6217 30.1501 24.3976 29.1727 24.5394C28.5609 24.6289 25.5541 24.5394 25.3975 24.5394C24.5917 24.5394 23.8829 24.2559 23.3084 23.7037C22.6742 23.0919 22.0997 22.4204 21.4879 21.7862C21.3013 21.5923 21.1074 21.4132 20.8984 21.249C20.3986 20.8685 19.9136 20.9506 19.6823 21.54C19.4808 22.0399 19.3092 23.3605 19.3018 23.4724C19.257 24.0619 18.884 24.4349 18.2274 24.4722C16.3248 24.5767 14.4745 24.3603 12.7584 23.4426C11.3035 22.6592 10.1396 21.5549 9.12491 20.2716C7.52078 18.2273 6.25986 15.9815 5.1034 13.6686C5.04371 13.5492 3.87233 11.0572 3.84248 10.9453C3.73803 10.5499 3.83502 10.1768 4.17077 10.0425C4.37968 9.96046 8.23704 10.0425 8.29673 10.0425C8.916 10.0873 9.33382 10.3484 9.59495 10.9826Z" fill="white"/>
</svg>
