<svg xmlns="http://www.w3.org/2000/svg"><defs><clipPath id="a"><path transform="rotate(-180 30 30)" fill="#fff" d="M30 30h30v30H30z"/></clipPath><radialGradient id="a" cx="0" cy="0" r="1" gradientUnits="userSpaceOnUse" gradientTransform="translate(-2.619 24.97) scale(33.5477)"><stop stop-color="#FD5"/><stop offset=".1" stop-color="#FD5"/><stop offset=".5" stop-color="#FF543E"/><stop offset="1" stop-color="#C837AB"/></radialGradient><radialGradient id="b" cx="0" cy="0" r="1" gradientUnits="userSpaceOnUse" gradientTransform="translate(-.109 -.727) scale(19.0237)"><stop stop-color="#3771C8"/><stop offset=".128" stop-color="#3771C8"/><stop offset="1" stop-color="#60F" stop-opacity="0"/></radialGradient><radialGradient id="a" cx="0" cy="0" r="1" gradientUnits="userSpaceOnUse" gradientTransform="translate(-2.619 24.97) scale(33.5477)"><stop stop-color="#FD5"/><stop offset=".1" stop-color="#FD5"/><stop offset=".5" stop-color="#FF543E"/><stop offset="1" stop-color="#C837AB"/></radialGradient><radialGradient id="b" cx="0" cy="0" r="1" gradientUnits="userSpaceOnUse" gradientTransform="translate(-.109 -.727) scale(19.0237)"><stop stop-color="#3771C8"/><stop offset=".128" stop-color="#3771C8"/><stop offset="1" stop-color="#60F" stop-opacity="0"/></radialGradient><clipPath id="a"><path fill="#fff" d="M0 0h22v22H0z"/></clipPath></defs><symbol id="arrow"><g clip-path="url(#a)"><path d="M1.686 17.353l-.046-.01h20.074l-6.31 6.324a1.642 1.642 0 0 0-.48 1.166c0 .44.17.855.48 1.164l.981.983c.31.308.72.479 1.16.479.438 0 .85-.17 1.159-.478l10.818-10.817c.31-.31.48-.723.478-1.162a1.626 1.626 0 0 0-.478-1.165L18.704 3.02a1.628 1.628 0 0 0-1.16-.478c-.438 0-.85.17-1.159.478l-.982.983c-.309.308-.478.72-.478 1.159 0 .439.17.829.478 1.137l6.382 6.36H1.664c-.904 0-1.664.78-1.664 1.683v1.39c0 .903.782 1.622 1.686 1.622z"/></g></symbol><symbol id="european"><path d="M11 22c6.075 0 11-4.925 11-11S17.075 0 11 0 0 4.925 0 11s4.925 11 11 11z" fill="#0052B4"/><path d="M11 4.305l.355 1.096h1.153l-.932.677.356 1.096-.933-.677-.932.677.356-1.096-.932-.677h1.152L11 4.305zM6.27 6.266l1.026.523.815-.815-.18 1.139 1.027.523-1.138.18-.18 1.138-.524-1.026-1.138.18.815-.815-.524-1.027zM4.307 11l1.096-.356V9.492l.678.932 1.096-.356-.678.932.678.933-1.096-.356-.678.932v-1.152L4.307 11zM6.27 15.735l.523-1.027-.815-.815 1.138.18.523-1.027.18 1.139 1.139.18-1.027.523.18 1.138-.815-.815-1.027.524zM11 17.696l-.357-1.096H9.491l.932-.677-.356-1.096.932.677.933-.677-.356 1.096.932.677h-1.152l-.357 1.096zM15.735 15.735l-1.027-.523-.815.814.18-1.138-1.027-.523 1.139-.18.18-1.139.523 1.027 1.138-.18-.815.815.524 1.027zM17.699 11l-1.096.357v1.152l-.678-.932-1.096.356.678-.933-.678-.932 1.096.356.678-.932v1.152l1.096.356zM15.735 6.266l-.524 1.027.815.815-1.138-.18-.523 1.026-.18-1.138-1.139-.18 1.027-.524-.18-1.138.815.815 1.027-.523z" fill="#FFDA44"/></symbol><symbol id="insta"><path d="M34 0H0v34h34V0z" fill="url(#a)"/><path d="M33.91 33.112V.306A9.036 9.036 0 0 0 33.478 0H0v33.91h32.62c.462-.23.888-.5 1.29-.798z" fill="url(#b)"/><path d="M17.011 4.178c-3.484 0-3.924.015-5.29.075-1.365.06-2.298.276-3.11.597a6.187 6.187 0 0 0-2.277 1.484A6.222 6.222 0 0 0 4.85 8.603c-.321.813-.537 1.745-.597 3.11-.06 1.366-.075 1.807-.075 5.29 0 3.485.015 3.925.075 5.29.06 1.366.276 2.299.597 3.112.328.843.768 1.56 1.477 2.275a6.311 6.311 0 0 0 2.276 1.485c.813.321 1.745.538 3.118.597 1.366.06 1.806.075 5.29.075 3.485 0 3.925-.015 5.29-.075 1.366-.06 2.298-.276 3.119-.597a6.222 6.222 0 0 0 2.268-1.485 6.41 6.41 0 0 0 1.485-2.275c.313-.813.53-1.746.597-3.111.06-1.366.074-1.806.074-5.29 0-3.485-.015-3.925-.074-5.29-.067-1.366-.284-2.298-.597-3.111a6.312 6.312 0 0 0-1.485-2.276 6.227 6.227 0 0 0-2.276-1.477c-.82-.321-1.753-.537-3.118-.597-1.366-.06-1.799-.075-5.283-.075zm-1.149 2.313h1.15c3.424 0 3.834.015 5.185.075 1.253.06 1.932.268 2.38.44a3.96 3.96 0 0 1 1.477.962c.448.448.724.88.963 1.478.179.455.387 1.134.44 2.38.06 1.35.074 1.76.074 5.185s-.015 3.828-.074 5.186c-.06 1.253-.269 1.932-.44 2.38a4.054 4.054 0 0 1-.963 1.477 4.025 4.025 0 0 1-1.477.963c-.455.179-1.134.387-2.38.44-1.35.06-1.761.074-5.186.074-3.424 0-3.835-.015-5.185-.074-1.254-.06-1.933-.269-2.38-.44a3.903 3.903 0 0 1-1.478-.963 4.024 4.024 0 0 1-.962-1.477c-.18-.455-.388-1.134-.44-2.38-.06-1.35-.075-1.761-.075-5.186 0-3.424.015-3.827.075-5.185.06-1.254.268-1.933.44-2.38.231-.597.515-1.03.962-1.478.448-.447.88-.723 1.478-.962.455-.18 1.134-.388 2.38-.44 1.186-.06 1.641-.075 4.036-.075zm7.998 2.134c-.85 0-1.537.686-1.537 1.537 0 .85.687 1.537 1.537 1.537.851 0 1.537-.687 1.537-1.537a1.53 1.53 0 0 0-1.537-1.537zm-6.849 1.798a6.585 6.585 0 0 0-6.588 6.588 6.585 6.585 0 0 0 6.588 6.588 6.585 6.585 0 0 0 6.588-6.588 6.585 6.585 0 0 0-6.588-6.588zm0 2.313a4.275 4.275 0 1 1-4.275 4.275 4.27 4.27 0 0 1 4.275-4.275z" fill="#fff"/></symbol><symbol id="instagram" viewBox="0 0 34 34"><path d="M34 0H0v34h34V0z" fill="url(#a)"/><path d="M33.91 33.112V.306A9.036 9.036 0 0 0 33.478 0H0v33.91h32.62c.462-.23.888-.5 1.29-.798z" fill="url(#b)"/><path d="M17.011 4.178c-3.484 0-3.924.015-5.29.075-1.365.06-2.298.276-3.11.597a6.187 6.187 0 0 0-2.277 1.484A6.222 6.222 0 0 0 4.85 8.603c-.321.813-.537 1.745-.597 3.11-.06 1.366-.075 1.807-.075 5.29 0 3.485.015 3.925.075 5.29.06 1.366.276 2.299.597 3.112.328.843.768 1.56 1.477 2.275a6.311 6.311 0 0 0 2.276 1.485c.813.321 1.745.538 3.118.597 1.366.06 1.806.075 5.29.075 3.485 0 3.925-.015 5.29-.075 1.366-.06 2.298-.276 3.119-.597a6.222 6.222 0 0 0 2.268-1.485 6.41 6.41 0 0 0 1.485-2.275c.313-.813.53-1.746.597-3.111.06-1.366.074-1.806.074-5.29 0-3.485-.015-3.925-.074-5.29-.067-1.366-.284-2.298-.597-3.111a6.312 6.312 0 0 0-1.485-2.276 6.227 6.227 0 0 0-2.276-1.477c-.82-.321-1.753-.537-3.118-.597-1.366-.06-1.799-.075-5.283-.075zm-1.149 2.313h1.15c3.424 0 3.834.015 5.185.075 1.253.06 1.932.268 2.38.44a3.96 3.96 0 0 1 1.477.962c.448.448.724.88.963 1.478.179.455.387 1.134.44 2.38.06 1.35.074 1.76.074 5.185s-.015 3.828-.074 5.186c-.06 1.253-.269 1.932-.44 2.38a4.054 4.054 0 0 1-.963 1.477 4.025 4.025 0 0 1-1.477.963c-.455.179-1.134.387-2.38.44-1.35.06-1.761.074-5.186.074-3.424 0-3.835-.015-5.185-.074-1.254-.06-1.933-.269-2.38-.44a3.903 3.903 0 0 1-1.478-.963 4.024 4.024 0 0 1-.962-1.477c-.18-.455-.388-1.134-.44-2.38-.06-1.35-.075-1.761-.075-5.186 0-3.424.015-3.827.075-5.185.06-1.254.268-1.933.44-2.38.231-.597.515-1.03.962-1.478.448-.447.88-.723 1.478-.962.455-.18 1.134-.388 2.38-.44 1.186-.06 1.641-.075 4.036-.075zm7.998 2.134c-.85 0-1.537.686-1.537 1.537 0 .85.687 1.537 1.537 1.537.851 0 1.537-.687 1.537-1.537a1.53 1.53 0 0 0-1.537-1.537zm-6.849 1.798a6.585 6.585 0 0 0-6.588 6.588 6.585 6.585 0 0 0 6.588 6.588 6.585 6.585 0 0 0 6.588-6.588 6.585 6.585 0 0 0-6.588-6.588zm0 2.313a4.275 4.275 0 1 1-4.275 4.275 4.27 4.27 0 0 1 4.275-4.275z" fill="#fff"/></symbol><symbol id="link__down" viewBox="0 0 192.689 192.689"><path d="M188.527 87.755l-83.009-84.2a11.952 11.952 0 0 0-17.011 0c-4.704 4.74-4.704 12.439 0 17.179l74.54 75.61-74.54 75.61c-4.704 4.74-4.704 12.439 0 17.179 4.704 4.74 12.319 4.74 17.011 0l82.997-84.2c4.535-4.558 4.547-12.606.012-17.178z"/><path d="M104.315 87.755l-82.997-84.2c-4.704-4.74-12.319-4.74-17.011 0-4.704 4.74-4.704 12.439 0 17.179l74.528 75.61-74.54 75.61c-4.704 4.74-4.704 12.439 0 17.179s12.319 4.74 17.011 0l82.997-84.2c4.535-4.558 4.547-12.606.012-17.178z"/></symbol><symbol id="phone"><path d="M18.246 15.876c-.784-.774-1.763-.774-2.542 0a148.6 148.6 0 0 0-1.773 1.778c-.16.165-.294.2-.49.09-.384-.21-.793-.38-1.163-.61-1.723-1.083-3.166-2.476-4.445-4.045-.634-.779-1.198-1.613-1.593-2.552-.08-.19-.065-.314.09-.469.594-.574 1.174-1.164 1.758-1.753.814-.819.814-1.778-.005-2.602-.464-.47-.929-.929-1.393-1.398-.48-.48-.954-.964-1.439-1.439-.784-.764-1.763-.764-2.542.005-.6.59-1.173 1.194-1.783 1.773C.362 5.19.077 5.843.017 6.607c-.094 1.244.21 2.417.64 3.56.879 2.368 2.217 4.47 3.84 6.398 2.193 2.607 4.81 4.67 7.871 6.158 1.378.67 2.807 1.184 4.36 1.269 1.069.06 1.998-.21 2.742-1.044.51-.57 1.083-1.089 1.623-1.633.799-.81.804-1.788.01-2.587a768.058 768.058 0 0 0-2.857-2.852zM17.292 11.896l1.843-.315a8.237 8.237 0 0 0-2.302-4.444 8.192 8.192 0 0 0-4.695-2.343l-.26 1.853a6.356 6.356 0 0 1 3.636 1.813 6.355 6.355 0 0 1 1.778 3.436zM20.174 3.885A13.589 13.589 0 0 0 12.383 0l-.26 1.853a11.782 11.782 0 0 1 6.732 3.356 11.773 11.773 0 0 1 3.301 6.367L24 11.262a13.688 13.688 0 0 0-3.825-7.377z"/></symbol><symbol id="russia"><g clip-path="url(#a)"><path d="M11 22c6.075 0 11-4.925 11-11S17.075 0 11 0 0 4.925 0 11s4.925 11 11 11z" fill="#F0F0F0"/><path d="M21.316 14.826c.442-1.192.684-2.48.684-3.826s-.242-2.635-.684-3.826H.684A10.976 10.976 0 0 0 0 11c0 1.345.242 2.634.684 3.826L11 15.783l10.316-.957z" fill="#0052B4"/><path d="M10.998 22c4.73 0 8.762-2.985 10.316-7.174H.682C2.237 19.015 6.27 22 10.998 22z" fill="#D80027"/></g></symbol><symbol id="vk"><path d="M34 0H0v34h34V0z" fill="#4C77A6"/><path d="M9.595 10.983c.739 1.82 1.671 3.536 2.902 5.073.164.202.366.388.582.537.314.217.612.142.746-.224.135-.38.261-1.149.269-1.551.022-1.045 0-1.724-.06-2.768-.037-.665-.276-1.254-1.253-1.433-.306-.052-.329-.306-.135-.552.403-.515.97-.597 1.582-.634.993-.052 1.985-.008 2.977 0 .403 0 .814.037 1.209.127.522.111.798.477.88.984.045.262.067.53.06.799-.022 1.134-.082 2.275-.097 3.41-.007.447.03.902.12 1.335.134.604.544.761.97.32.537-.559 1.007-1.178 1.447-1.812.806-1.157 1.41-2.425 1.925-3.73.268-.672.47-.822 1.2-.822 1.366 0 2.732-.007 4.097 0 .239 0 .493.023.724.098.373.119.515.417.433.805-.202.896-.687 1.664-1.21 2.395-.835 1.18-1.708 2.328-2.566 3.492-.112.15-.201.306-.29.47-.322.575-.3.903.17 1.38.74.769 1.538 1.485 2.254 2.269a13.455 13.455 0 0 1 1.418 1.843c.522.828.201 1.604-.776 1.745-.612.09-3.619 0-3.775 0a2.931 2.931 0 0 1-2.09-.835c-.634-.612-1.208-1.284-1.82-1.918a5.731 5.731 0 0 0-.59-.537c-.5-.38-.984-.298-1.216.291-.201.5-.373 1.82-.38 1.932-.045.59-.418.963-1.075 1-1.902.105-3.752-.112-5.469-1.03-1.454-.783-2.618-1.887-3.633-3.17-1.604-2.045-2.865-4.29-4.022-6.603-.06-.12-1.23-2.612-1.26-2.724-.105-.395-.008-.768.328-.902.209-.083 4.066 0 4.126 0 .619.044 1.037.305 1.298.94z" fill="#fff"/></symbol><symbol id="world" viewBox="0 0 22 22"><path d="M18.961 3.417l-1.138.759-1.896-.38-1.138-.379-1.518.38-1.138-.38.759-1.517h1.517l1.487-.744a10.864 10.864 0 0 1 3.065 2.261zM10.239 1.9l-.38 1.137-1.138.38-1.138 1.896-1.896 1.138-2.656.38v1.138l.759.758v1.518l-1.138-.759-1.138-.759-.66-1.983A10.994 10.994 0 0 1 6.885.799l1.078.721 2.276.38zM11 12.521l-.379 1.897-1.517 1.517v1.138l-1.518 1.138v1.897l-1.138-.38-.758-1.896v-3.794l-1.897-.379-.759-1.517v-1.138l.76-.759L4.93 9.107l.759 1.517h2.655l1.138 1.897h1.518zM20.596 5.628a10.99 10.99 0 0 1-.607 11.71l-1.024-1.024v-1.517l-.76-1.518-.758-1.517v-1.517l-1.138-.759-1.517.38-2.656-1.139-.379-2.655 1.138-1.138h2.276l.759 1.138 2.276.38 2.276-.76.114-.064z" fill="#03AA6F"/><path d="M13.275 3.796l1.518-.379 1.138.38 1.896.379 1.138-.759a10.836 10.836 0 0 1 1.631 2.212l-.113.064-2.276.759-2.276-.38-.759-1.138h-2.276l-1.138 1.138.38 2.656 2.655 1.138 1.517-.38 1.138.76v1.517l.759 1.517.758 1.517v1.518l1.025 1.024c-3.504 4.964-10.368 6.148-15.331 2.645A11.001 11.001 0 0 1 .856 6.744l.66 1.984 1.138.758 1.138.76-.759.758v1.138l.759 1.517 1.897.38v3.793l.758 1.897 1.138.379v-1.897l1.518-1.138v-1.138l1.517-1.517.38-1.897H9.481l-1.138-1.897H5.689l-.76-1.517-1.137 1.138V8.728l-.759-.759V6.831l2.656-.38 1.896-1.137 1.138-1.897 1.138-.38.38-1.137-2.276-.38L6.887.8a11.001 11.001 0 0 1 9.013.356l-1.487.744h-1.517l-.759 1.517 1.138.38z" fill="#86DAF1"/></symbol></svg>